<svg width="64" height="64" viewBox="0 0 64 64" fill="none" xmlns="http://www.w3.org/2000/svg">
<g clip-path="url(#clip0_1_3)">
<path d="M32 0C14.272 0 0 14.272 0 32C0 49.728 14.272 64 32 64C49.728 64 64 49.728 64 32C64 14.272 49.728 0 32 0ZM39.4667 11.5547C39.8133 11.544 40.128 11.9173 39.9227 12.296L31.8053 27.176C31.7643 27.2519 31.7436 27.3371 31.7453 27.4233C31.7471 27.5096 31.7711 27.5939 31.8152 27.6681C31.8593 27.7422 31.9218 27.8037 31.9967 27.8464C32.0717 27.8892 32.1564 27.9118 32.2427 27.912H46.2693C46.7227 27.912 46.9413 28.464 46.6107 28.7733L22.024 51.72C21.584 52.1307 20.9307 51.552 21.2827 51.064L32.92 35.008C32.9733 34.9337 33.0052 34.8461 33.0121 34.7548C33.0189 34.6636 33.0006 34.5722 32.959 34.4907C32.9174 34.4092 32.8542 34.3407 32.7763 34.2927C32.6984 34.2448 32.6088 34.2191 32.5173 34.2187H17.672C17.5732 34.2184 17.4768 34.1889 17.3948 34.1337C17.3129 34.0786 17.2491 34.0003 17.2117 33.9089C17.1743 33.8175 17.1649 33.7171 17.1846 33.6203C17.2044 33.5235 17.2524 33.4348 17.3227 33.3653L39.136 11.704C39.2234 11.6127 39.343 11.5591 39.4693 11.5547H39.4667Z" fill="#63CACC"/>
</g>
<defs>
<clipPath id="clip0_1_3">
<rect width="64" height="64" fill="white"/>
</clipPath>
</defs>
</svg>
